<svg xmlns="http://www.w3.org/2000/svg" viewBox="0 0 100 100">
  <defs>
    <radialGradient id="sf" cx="50%" cy="40%" r="62%">
      <stop offset="0" stop-color="#ffbf6b"/><stop offset="1" stop-color="#f08a3e"/>
    </radialGradient>
  </defs>
  <path d="M50 6 Q56 28 59.4 37.1 Q78 30 91.8 36.4 Q74 50 65.2 54.9 Q80 74 75.9 85.6 Q62 64 50 66 Q38 64 24.1 85.6 Q20 74 34.8 54.9 Q26 50 8.2 36.4 Q22 30 40.6 37.1 Q44 28 50 6 Z"
        fill="url(#sf)" stroke="#d9742e" stroke-width="2.5" stroke-linejoin="round"/>
  <g fill="#ffe1b0"><circle cx="50" cy="24" r="2.6"/><circle cx="69" cy="44" r="2.4"/><circle cx="62" cy="66" r="2.2"/><circle cx="38" cy="66" r="2.2"/><circle cx="31" cy="44" r="2.4"/></g>
  <g fill="#7a4a22"><circle cx="44" cy="47" r="2.6"/><circle cx="56" cy="47" r="2.6"/></g>
  <path d="M44 55 Q50 61 56 55" stroke="#7a4a22" stroke-width="2.6" fill="none" stroke-linecap="round"/>
</svg>
